<mxfile host="app.diagrams.net" modified="2021-05-26T15:02:33.939Z" agent="5.0 (Macintosh; Intel Mac OS X 10_14_6) AppleWebKit/537.36 (KHTML, like Gecko) Chrome/90.0.4430.212 Safari/537.36" etag="crJoQYXkW1qy5UKHUPm7" version="13.6.0" type="github">
  <diagram id="dUstYT-019-na-oaoTNE" name="Page-1">
    <mxGraphModel dx="1186" dy="702" grid="1" gridSize="10" guides="1" tooltips="1" connect="1" arrows="1" fold="1" page="1" pageScale="1" pageWidth="850" pageHeight="1100" math="0" shadow="0">
      <root>
        <mxCell id="0" />
        <mxCell id="1" parent="0" />
        <mxCell id="ohQuUK1eftScPE7SB7Xb-1" value="New User" style="html=1;dashed=0;whitespace=wrap;shape=mxgraph.dfd.start" vertex="1" parent="1">
          <mxGeometry x="310" y="80" width="80" height="30" as="geometry" />
        </mxCell>
        <mxCell id="ohQuUK1eftScPE7SB7Xb-2" value="" style="ellipse;html=1;shape=startState;fillColor=#000000;strokeColor=#ff0000;" vertex="1" parent="1">
          <mxGeometry x="335" y="110" width="30" height="30" as="geometry" />
        </mxCell>
        <mxCell id="ohQuUK1eftScPE7SB7Xb-3" value="" style="edgeStyle=orthogonalEdgeStyle;html=1;verticalAlign=bottom;endArrow=open;endSize=8;strokeColor=#ff0000;" edge="1" source="ohQuUK1eftScPE7SB7Xb-2" parent="1">
          <mxGeometry relative="1" as="geometry">
            <mxPoint x="350" y="200" as="targetPoint" />
          </mxGeometry>
        </mxCell>
        <mxCell id="ohQuUK1eftScPE7SB7Xb-6" value="" style="edgeStyle=orthogonalEdgeStyle;rounded=0;orthogonalLoop=1;jettySize=auto;html=1;" edge="1" parent="1" source="ohQuUK1eftScPE7SB7Xb-4">
          <mxGeometry relative="1" as="geometry">
            <mxPoint x="350" y="270" as="targetPoint" />
          </mxGeometry>
        </mxCell>
        <mxCell id="ohQuUK1eftScPE7SB7Xb-9" value="yes?" style="edgeLabel;html=1;align=center;verticalAlign=middle;resizable=0;points=[];" vertex="1" connectable="0" parent="ohQuUK1eftScPE7SB7Xb-6">
          <mxGeometry x="-0.4" y="1" relative="1" as="geometry">
            <mxPoint as="offset" />
          </mxGeometry>
        </mxCell>
        <mxCell id="ohQuUK1eftScPE7SB7Xb-8" value="" style="edgeStyle=orthogonalEdgeStyle;rounded=0;orthogonalLoop=1;jettySize=auto;html=1;" edge="1" parent="1" source="ohQuUK1eftScPE7SB7Xb-4" target="ohQuUK1eftScPE7SB7Xb-7">
          <mxGeometry relative="1" as="geometry" />
        </mxCell>
        <mxCell id="ohQuUK1eftScPE7SB7Xb-4" value="Register Screen" style="text;html=1;strokeColor=none;fillColor=none;align=center;verticalAlign=middle;whiteSpace=wrap;rounded=0;" vertex="1" parent="1">
          <mxGeometry x="280" y="200" width="140" height="20" as="geometry" />
        </mxCell>
        <mxCell id="ohQuUK1eftScPE7SB7Xb-7" value="username&lt;br&gt;Email Address&lt;br&gt;password" style="whiteSpace=wrap;html=1;" vertex="1" parent="1">
          <mxGeometry x="70" y="180" width="120" height="60" as="geometry" />
        </mxCell>
        <mxCell id="ohQuUK1eftScPE7SB7Xb-12" value="" style="edgeStyle=orthogonalEdgeStyle;rounded=0;orthogonalLoop=1;jettySize=auto;html=1;" edge="1" parent="1" source="ohQuUK1eftScPE7SB7Xb-10" target="ohQuUK1eftScPE7SB7Xb-11">
          <mxGeometry relative="1" as="geometry" />
        </mxCell>
        <mxCell id="ohQuUK1eftScPE7SB7Xb-14" value="" style="edgeStyle=orthogonalEdgeStyle;rounded=0;orthogonalLoop=1;jettySize=auto;html=1;" edge="1" parent="1" source="ohQuUK1eftScPE7SB7Xb-10" target="ohQuUK1eftScPE7SB7Xb-13">
          <mxGeometry relative="1" as="geometry" />
        </mxCell>
        <mxCell id="ohQuUK1eftScPE7SB7Xb-10" value="Create Character" style="text;html=1;strokeColor=none;fillColor=none;align=center;verticalAlign=middle;whiteSpace=wrap;rounded=0;" vertex="1" parent="1">
          <mxGeometry x="300" y="270" width="100" height="20" as="geometry" />
        </mxCell>
        <mxCell id="ohQuUK1eftScPE7SB7Xb-34" value="" style="edgeStyle=orthogonalEdgeStyle;rounded=0;orthogonalLoop=1;jettySize=auto;html=1;" edge="1" parent="1" source="ohQuUK1eftScPE7SB7Xb-11" target="ohQuUK1eftScPE7SB7Xb-33">
          <mxGeometry relative="1" as="geometry" />
        </mxCell>
        <mxCell id="ohQuUK1eftScPE7SB7Xb-36" value="" style="edgeStyle=orthogonalEdgeStyle;rounded=0;orthogonalLoop=1;jettySize=auto;html=1;" edge="1" parent="1" source="ohQuUK1eftScPE7SB7Xb-11" target="ohQuUK1eftScPE7SB7Xb-35">
          <mxGeometry relative="1" as="geometry" />
        </mxCell>
        <mxCell id="ohQuUK1eftScPE7SB7Xb-37" value="" style="edgeStyle=orthogonalEdgeStyle;rounded=0;orthogonalLoop=1;jettySize=auto;html=1;" edge="1" parent="1" source="ohQuUK1eftScPE7SB7Xb-11" target="ohQuUK1eftScPE7SB7Xb-35">
          <mxGeometry relative="1" as="geometry" />
        </mxCell>
        <mxCell id="ohQuUK1eftScPE7SB7Xb-38" value="" style="edgeStyle=orthogonalEdgeStyle;rounded=0;orthogonalLoop=1;jettySize=auto;html=1;" edge="1" parent="1" source="ohQuUK1eftScPE7SB7Xb-11" target="ohQuUK1eftScPE7SB7Xb-35">
          <mxGeometry relative="1" as="geometry" />
        </mxCell>
        <mxCell id="ohQuUK1eftScPE7SB7Xb-39" value="" style="edgeStyle=orthogonalEdgeStyle;rounded=0;orthogonalLoop=1;jettySize=auto;html=1;" edge="1" parent="1" source="ohQuUK1eftScPE7SB7Xb-11" target="ohQuUK1eftScPE7SB7Xb-35">
          <mxGeometry relative="1" as="geometry" />
        </mxCell>
        <mxCell id="ohQuUK1eftScPE7SB7Xb-55" value="" style="edgeStyle=orthogonalEdgeStyle;rounded=0;orthogonalLoop=1;jettySize=auto;html=1;" edge="1" parent="1" source="ohQuUK1eftScPE7SB7Xb-11" target="ohQuUK1eftScPE7SB7Xb-47">
          <mxGeometry relative="1" as="geometry" />
        </mxCell>
        <mxCell id="ohQuUK1eftScPE7SB7Xb-11" value="Race" style="text;html=1;strokeColor=none;fillColor=none;align=center;verticalAlign=middle;whiteSpace=wrap;rounded=0;" vertex="1" parent="1">
          <mxGeometry x="170" y="310" width="100" height="20" as="geometry" />
        </mxCell>
        <mxCell id="ohQuUK1eftScPE7SB7Xb-26" value="" style="edgeStyle=orthogonalEdgeStyle;rounded=0;orthogonalLoop=1;jettySize=auto;html=1;" edge="1" parent="1" source="ohQuUK1eftScPE7SB7Xb-13" target="ohQuUK1eftScPE7SB7Xb-25">
          <mxGeometry relative="1" as="geometry" />
        </mxCell>
        <mxCell id="ohQuUK1eftScPE7SB7Xb-28" value="" style="edgeStyle=orthogonalEdgeStyle;rounded=0;orthogonalLoop=1;jettySize=auto;html=1;" edge="1" parent="1" source="ohQuUK1eftScPE7SB7Xb-13" target="ohQuUK1eftScPE7SB7Xb-27">
          <mxGeometry relative="1" as="geometry" />
        </mxCell>
        <mxCell id="ohQuUK1eftScPE7SB7Xb-56" value="" style="edgeStyle=orthogonalEdgeStyle;rounded=0;orthogonalLoop=1;jettySize=auto;html=1;" edge="1" parent="1" source="ohQuUK1eftScPE7SB7Xb-13" target="ohQuUK1eftScPE7SB7Xb-47">
          <mxGeometry relative="1" as="geometry" />
        </mxCell>
        <mxCell id="ohQuUK1eftScPE7SB7Xb-13" value="Class" style="text;html=1;strokeColor=none;fillColor=none;align=center;verticalAlign=middle;whiteSpace=wrap;rounded=0;" vertex="1" parent="1">
          <mxGeometry x="450" y="310" width="100" height="20" as="geometry" />
        </mxCell>
        <mxCell id="ohQuUK1eftScPE7SB7Xb-15" style="edgeStyle=orthogonalEdgeStyle;rounded=0;orthogonalLoop=1;jettySize=auto;html=1;exitX=0.5;exitY=1;exitDx=0;exitDy=0;" edge="1" parent="1" source="ohQuUK1eftScPE7SB7Xb-13" target="ohQuUK1eftScPE7SB7Xb-13">
          <mxGeometry relative="1" as="geometry" />
        </mxCell>
        <mxCell id="ohQuUK1eftScPE7SB7Xb-25" value="Mage" style="text;html=1;strokeColor=none;fillColor=none;align=center;verticalAlign=middle;whiteSpace=wrap;rounded=0;" vertex="1" parent="1">
          <mxGeometry x="400" y="370" width="100" height="20" as="geometry" />
        </mxCell>
        <mxCell id="ohQuUK1eftScPE7SB7Xb-44" value="" style="edgeStyle=orthogonalEdgeStyle;rounded=0;orthogonalLoop=1;jettySize=auto;html=1;" edge="1" parent="1" source="ohQuUK1eftScPE7SB7Xb-27" target="ohQuUK1eftScPE7SB7Xb-43">
          <mxGeometry relative="1" as="geometry">
            <Array as="points">
              <mxPoint x="500" y="350" />
              <mxPoint x="590" y="350" />
            </Array>
          </mxGeometry>
        </mxCell>
        <mxCell id="ohQuUK1eftScPE7SB7Xb-27" value="Warrior" style="text;html=1;strokeColor=none;fillColor=none;align=center;verticalAlign=middle;whiteSpace=wrap;rounded=0;" vertex="1" parent="1">
          <mxGeometry x="450" y="370" width="100" height="20" as="geometry" />
        </mxCell>
        <mxCell id="ohQuUK1eftScPE7SB7Xb-60" value="" style="edgeStyle=orthogonalEdgeStyle;rounded=0;orthogonalLoop=1;jettySize=auto;html=1;" edge="1" parent="1" source="ohQuUK1eftScPE7SB7Xb-33" target="ohQuUK1eftScPE7SB7Xb-59">
          <mxGeometry relative="1" as="geometry" />
        </mxCell>
        <mxCell id="ohQuUK1eftScPE7SB7Xb-33" value="Human" style="text;html=1;strokeColor=none;fillColor=none;align=center;verticalAlign=middle;whiteSpace=wrap;rounded=0;" vertex="1" parent="1">
          <mxGeometry x="90" y="370" width="100" height="20" as="geometry" />
        </mxCell>
        <mxCell id="ohQuUK1eftScPE7SB7Xb-41" value="" style="edgeStyle=orthogonalEdgeStyle;rounded=0;orthogonalLoop=1;jettySize=auto;html=1;" edge="1" parent="1" source="ohQuUK1eftScPE7SB7Xb-35" target="ohQuUK1eftScPE7SB7Xb-40">
          <mxGeometry relative="1" as="geometry">
            <Array as="points">
              <mxPoint x="190" y="350" />
              <mxPoint x="270" y="350" />
            </Array>
          </mxGeometry>
        </mxCell>
        <mxCell id="ohQuUK1eftScPE7SB7Xb-35" value="Elf" style="text;html=1;strokeColor=none;fillColor=none;align=center;verticalAlign=middle;whiteSpace=wrap;rounded=0;" vertex="1" parent="1">
          <mxGeometry x="140" y="370" width="100" height="20" as="geometry" />
        </mxCell>
        <mxCell id="ohQuUK1eftScPE7SB7Xb-40" value="Dwarf" style="text;html=1;strokeColor=none;fillColor=none;align=center;verticalAlign=middle;whiteSpace=wrap;rounded=0;" vertex="1" parent="1">
          <mxGeometry x="190" y="370" width="100" height="20" as="geometry" />
        </mxCell>
        <mxCell id="ohQuUK1eftScPE7SB7Xb-43" value="Hunter" style="text;html=1;strokeColor=none;fillColor=none;align=center;verticalAlign=middle;whiteSpace=wrap;rounded=0;" vertex="1" parent="1">
          <mxGeometry x="510" y="370" width="100" height="20" as="geometry" />
        </mxCell>
        <mxCell id="ohQuUK1eftScPE7SB7Xb-46" style="edgeStyle=orthogonalEdgeStyle;rounded=0;orthogonalLoop=1;jettySize=auto;html=1;exitX=0.5;exitY=1;exitDx=0;exitDy=0;" edge="1" parent="1" source="ohQuUK1eftScPE7SB7Xb-43" target="ohQuUK1eftScPE7SB7Xb-43">
          <mxGeometry relative="1" as="geometry" />
        </mxCell>
        <mxCell id="ohQuUK1eftScPE7SB7Xb-53" value="" style="edgeStyle=orthogonalEdgeStyle;rounded=0;orthogonalLoop=1;jettySize=auto;html=1;" edge="1" parent="1" source="ohQuUK1eftScPE7SB7Xb-47" target="ohQuUK1eftScPE7SB7Xb-10">
          <mxGeometry relative="1" as="geometry" />
        </mxCell>
        <mxCell id="ohQuUK1eftScPE7SB7Xb-54" value="name" style="edgeLabel;html=1;align=center;verticalAlign=middle;resizable=0;points=[];" vertex="1" connectable="0" parent="ohQuUK1eftScPE7SB7Xb-53">
          <mxGeometry x="0.36" y="-2" relative="1" as="geometry">
            <mxPoint as="offset" />
          </mxGeometry>
        </mxCell>
        <mxCell id="ohQuUK1eftScPE7SB7Xb-62" value="" style="edgeStyle=orthogonalEdgeStyle;rounded=0;orthogonalLoop=1;jettySize=auto;html=1;" edge="1" parent="1" source="ohQuUK1eftScPE7SB7Xb-47" target="ohQuUK1eftScPE7SB7Xb-61">
          <mxGeometry relative="1" as="geometry" />
        </mxCell>
        <mxCell id="ohQuUK1eftScPE7SB7Xb-47" value="Actor" style="shape=umlActor;verticalLabelPosition=bottom;verticalAlign=top;html=1;outlineConnect=0;" vertex="1" parent="1">
          <mxGeometry x="335" y="320" width="30" height="60" as="geometry" />
        </mxCell>
        <mxCell id="ohQuUK1eftScPE7SB7Xb-59" value="Steal Turn" style="text;html=1;strokeColor=none;fillColor=none;align=center;verticalAlign=middle;whiteSpace=wrap;rounded=0;" vertex="1" parent="1">
          <mxGeometry x="90" y="470" width="100" height="20" as="geometry" />
        </mxCell>
        <mxCell id="ohQuUK1eftScPE7SB7Xb-64" value="" style="edgeStyle=orthogonalEdgeStyle;rounded=0;orthogonalLoop=1;jettySize=auto;html=1;" edge="1" parent="1" source="ohQuUK1eftScPE7SB7Xb-61" target="ohQuUK1eftScPE7SB7Xb-63">
          <mxGeometry relative="1" as="geometry" />
        </mxCell>
        <mxCell id="ohQuUK1eftScPE7SB7Xb-61" value="Save to profile" style="shape=process;whiteSpace=wrap;html=1;backgroundOutline=1;verticalAlign=top;" vertex="1" parent="1">
          <mxGeometry x="290" y="460" width="120" height="30" as="geometry" />
        </mxCell>
        <mxCell id="ohQuUK1eftScPE7SB7Xb-63" value="Home Screen" style="whiteSpace=wrap;html=1;verticalAlign=top;" vertex="1" parent="1">
          <mxGeometry x="290" y="555" width="120" height="35" as="geometry" />
        </mxCell>
      </root>
    </mxGraphModel>
  </diagram>
</mxfile>
